# xmcd
#
# Track frame offsets:
#	150
#	12904
#	24792
#	36811
#	49179
#	59926
#	78012
#	91355
#	101643
#	115369
#	130656
#	142512
#
# Disc length: 2052 seconds
#
# Revision: 1
# Processed by: cddbd v1.5.1PL0 Copyright (c) Steve Scherf et al.
# Submitted via: audiograbber 1.83.01
#
DISCID=9008020c
DTITLE=Various Artist - The Country Music Of Today - No. 1 Hits
DYEAR=1900
DGENRE=
TTITLE0=Johnny Cash  - Any Old Wind That Blows
TTITLE1=Tammy Wynette - 'Til I Get It Right
TTITLE2=Johnny Paycheck - Something About You I Love
TTITLE3=Sonny James - I Love You More and More Everyday
TTITLE4=Jody Miller - Good News
TTITLE5=Ray Price - She's Got To Be A Saint
TTITLE6=Lynn Anderson - Keep Me In Mind
TTITLE7=Johnny Cash and June Carter Cash - The Loving Gift
TTITLE8=Barbara Fairchild - Teddy Bear Song
TTITLE9=Bob Luman - Neither One Of Us
TTITLE10=George Jones - What My Woman Can't Do
TTITLE11=David Huston - Good Things
EXTD=
EXTT0=
EXTT1=
EXTT2=
EXTT3=
EXTT4=
EXTT5=
EXTT6=
EXTT7=
EXTT8=
EXTT9=
EXTT10=
EXTT11=
PLAYORDER=
